# xmcd CD database file generated by GCD 2.95
# 
# Track frame offsets:
#       150
#       21631
#       36434
#       54968
#       76594
#       95900
#       116228
#       137189
#       154180
#       170335
#       189051
#       208631
# 
# Disc length: 2986 seconds
# 
# Revision: 3
# Processed by: cddbd v1.4b41PL2 Copyright (c) Steve Scherf et al.
# Submitted via: GCD 2.95
# 
DISCID=a10ba80c
DTITLE=John Kay - Heretics and Privateers
DYEAR=1900
DGENRE=
TTITLE0=Heretics and Privateers
TTITLE1=Don't Waste My Time
TTITLE2=Ain't That a Shame
TTITLE3=Dodging Bullets
TTITLE4=She's Got the Goods
TTITLE5=For the Women In My Life
TTITLE6=To Be Alive
TTITLE7=I Will Not Be Denied
TTITLE8=Endless Commerical
TTITLE9=The Ice Age
TTITLE10=Sleep With One Eye Open
TTITLE11=The Back Page
EXTD=
EXTT0=
EXTT1=
EXTT2=
EXTT3=
EXTT4=
EXTT5=
EXTT6=
EXTT7=
EXTT8=
EXTT9=
EXTT10=
EXTT11=
PLAYORDER=
